<?xml version="1.0" encoding="UTF-8"?>
<svg xmlns="http://www.w3.org/2000/svg" xmlns:xlink="http://www.w3.org/1999/xlink" width="201pt" height="201pt" viewBox="0 0 201 201" version="1.1">
<g id="surface1">
<path style=" stroke:none;fill-rule:nonzero;fill:rgb(46.27451%,29.019608%,73.72549%);fill-opacity:1;" d="M 139.273438 139.816406 C 146.6875 139.011719 152.316406 132.304688 152.058594 124.253906 C 151.804688 116.203125 145.410156 109.761719 137.738281 109.761719 L 137.226562 109.761719 C 129.296875 110.03125 123.15625 117.007812 123.414062 125.328125 C 123.667969 129.351562 125.203125 132.839844 127.503906 135.253906 C 118.808594 153.234375 105.507812 166.382812 85.558594 177.386719 C 72 184.898438 57.933594 187.582031 43.867188 185.707031 C 32.355469 184.09375 23.402344 178.730469 17.773438 169.871094 C 9.589844 156.722656 8.824219 142.5 15.730469 128.277344 C 20.589844 118.082031 28.261719 110.566406 33.121094 106.808594 C 32.097656 103.320312 30.566406 97.417969 29.796875 93.125 C -7.289062 121.300781 -3.453125 159.40625 7.800781 177.386719 C 16.242188 190.804688 33.378906 199.125 52.304688 199.125 C 57.421875 199.125 62.535156 198.585938 67.652344 197.246094 C 100.394531 190.535156 125.203125 170.140625 139.273438 139.816406 Z M 184.289062 106.542969 C 164.851562 82.660156 136.203125 69.511719 103.460938 69.511719 L 99.371094 69.511719 C 97.066406 64.679688 92.207031 61.460938 86.835938 61.460938 L 86.324219 61.460938 C 78.394531 61.726562 72.257812 68.703125 72.511719 77.023438 C 72.769531 85.074219 79.164062 91.515625 86.835938 91.515625 L 87.347656 91.515625 C 92.976562 91.246094 97.835938 87.488281 99.882812 82.390625 L 104.484375 82.390625 C 123.925781 82.390625 142.339844 88.292969 158.96875 99.832031 C 171.757812 108.6875 180.964844 120.230469 186.078125 134.183594 C 190.429688 145.453125 190.171875 156.457031 185.566406 165.847656 C 178.40625 180.070312 166.386719 187.851562 150.527344 187.851562 C 140.292969 187.851562 130.574219 184.632812 125.460938 182.214844 C 122.644531 184.898438 117.53125 189.191406 113.949219 191.878906 C 124.949219 197.246094 136.203125 200.195312 146.945312 200.195312 C 171.5 200.195312 189.660156 185.972656 196.566406 171.75 C 203.984375 156.1875 203.472656 129.351562 184.289062 106.542969 Z M 54.351562 144.378906 C 54.609375 152.429688 61.003906 158.871094 68.675781 158.871094 L 69.1875 158.871094 C 77.117188 158.601562 83.253906 151.625 83 143.304688 C 82.746094 135.253906 76.347656 128.816406 68.675781 128.816406 L 68.164062 128.816406 C 67.652344 128.816406 66.886719 128.816406 66.375 129.082031 C 55.886719 110.835938 51.539062 90.976562 53.074219 69.507812 C 54.097656 53.410156 59.210938 39.453125 68.164062 27.914062 C 75.582031 17.984375 89.90625 13.15625 99.625 12.886719 C 126.738281 12.351562 138.246094 47.773438 139.015625 61.996094 C 142.339844 62.800781 147.96875 64.679688 151.804688 66.019531 C 148.734375 22.550781 123.15625 0.0078125 98.601562 0.0078125 C 75.582031 0.0078125 54.351562 17.449219 45.910156 43.210938 C 34.144531 77.5625 41.820312 110.566406 56.144531 136.597656 C 54.863281 138.476562 54.097656 141.425781 54.351562 144.378906 Z M 54.351562 144.378906 "/>
</g>
</svg>
