<?xml version="1.0" encoding="UTF-8"?>
<svg xmlns="http://www.w3.org/2000/svg" xmlns:xlink="http://www.w3.org/1999/xlink" width="201pt" height="201pt" viewBox="0 0 201 201" version="1.1">
<g id="surface1">
<path style=" stroke:none;fill-rule:nonzero;fill:rgb(81.176471%,39.215686%,60.392157%);fill-opacity:1;" d="M 172.96875 115.46875 C 165.941406 115.523438 159.859375 117.773438 154.753906 121.125 C 152.871094 116.152344 150.984375 111.804688 150.671875 108.5625 C 150.320312 104.792969 149.886719 102.488281 150.320312 97.988281 C 150.75 93.484375 152.710938 87.101562 152.710938 86.578125 C 152.671875 86.105469 152.28125 83.800781 148.238281 83.75 C 144.195312 83.699219 140.699219 84.796875 140.308594 86.210938 C 139.914062 87.625 139.128906 90.867188 138.621094 94.21875 C 137.914062 99.140625 130.53125 116.570312 126.332031 125.730469 C 124.957031 122.171875 123.78125 119.03125 123.542969 116.515625 C 123.191406 112.75 122.757812 110.445312 123.191406 105.945312 C 123.621094 101.441406 125.585938 95.054688 125.585938 94.53125 C 125.546875 94.0625 125.152344 91.757812 121.109375 91.707031 C 117.066406 91.652344 113.574219 92.753906 113.179688 94.167969 C 112.789062 95.578125 112.355469 98.929688 111.492188 102.175781 C 110.667969 105.421875 100.851562 134.523438 98.300781 142.113281 C 97.007812 145.988281 95.867188 149.074219 95.042969 151.167969 C 94.21875 153.261719 95.003906 151.324219 94.925781 151.535156 C 94.21875 153.316406 93.824219 154.308594 93.824219 154.308594 L 93.824219 154.363281 C 93.277344 155.671875 92.6875 156.925781 92.414062 156.925781 C 92.214844 156.925781 91.824219 153.417969 92.492188 148.605469 C 93.945312 138.5 97.476562 122.746094 97.4375 122.171875 C 97.4375 121.910156 98.105469 119.132812 95.160156 117.722656 C 92.292969 116.308594 91.273438 118.664062 91.039062 118.664062 C 90.804688 118.664062 90.605469 119.5 90.605469 119.5 C 90.605469 119.5 93.785156 101.757812 84.523438 101.757812 C 78.710938 101.757812 70.703125 110.183594 66.738281 117.878906 C 64.226562 119.710938 58.886719 123.585938 53.234375 127.71875 C 51.074219 129.289062 48.835938 130.964844 46.714844 132.484375 L 46.285156 131.855469 C 35.058594 115.890625 14.289062 104.582031 15.152344 83.121094 C 15.46875 75.324219 17.507812 54.75 55.039062 29.835938 C 85.777344 9.421875 110.394531 15.023438 114.671875 27.480469 C 120.757812 45.277344 101.519531 78.359375 69.566406 83.121094 C 57.394531 84.953125 50.996094 78.671875 49.386719 76.316406 C 47.699219 73.855469 47.464844 73.753906 46.835938 74.222656 C 45.8125 74.957031 46.441406 77.15625 46.835938 78.464844 C 47.777344 81.761719 51.703125 87.625 58.375 90.554688 C 64.226562 93.121094 78.515625 94.53125 95.789062 85.632812 C 115.144531 75.636719 130.257812 47.894531 125.820312 24.707031 C 121.308594 1.097656 91.941406 -6.648438 64.1875 6.492188 C 47.660156 14.34375 29.757812 26.589844 16.882812 42.660156 C 1.570312 61.714844 -0.863281 78.359375 0.15625 85.269531 C 3.730469 109.921875 29.207031 125.992188 39.414062 137.875 C 38.90625 138.238281 38.433594 138.605469 38 138.921875 C 32.898438 142.269531 13.464844 155.828125 8.597656 170.167969 C 3.101562 186.394531 9.460938 198.070312 13.699219 199.640625 C 26.8125 204.507812 40.238281 195.765625 47.5 181.371094 C 54.726562 166.976562 53.863281 148.289062 50.523438 139.757812 L 50.40625 139.445312 L 54.410156 136.304688 C 57.003906 134.261719 59.554688 132.378906 61.792969 130.753906 C 60.535156 135.308594 59.632812 140.699219 59.160156 148.550781 C 58.613281 157.765625 61.4375 169.699219 65.167969 174.410156 C 66.816406 176.449219 68.78125 176.503906 69.996094 176.503906 C 74.316406 176.503906 76.277344 171.738281 78.4375 166.035156 C 81.105469 159.070312 83.460938 151.011719 83.460938 151.011719 C 83.460938 151.011719 80.519531 172.839844 88.566406 172.839844 C 91.511719 172.839844 94.453125 167.761719 95.789062 165.144531 L 95.789062 165.195312 C 95.789062 165.195312 95.867188 165.039062 96.023438 164.671875 C 96.1875 164.347656 96.347656 164.015625 96.496094 163.679688 L 96.496094 163.574219 C 97.671875 160.851562 100.304688 154.625 104.230469 144.3125 C 109.292969 131.015625 114.160156 114.371094 114.160156 114.371094 C 114.160156 114.371094 114.632812 118.453125 116.085938 125.152344 C 116.949219 129.132812 118.832031 133.476562 120.285156 137.714844 C 119.109375 139.914062 118.402344 141.171875 118.402344 141.171875 L 118.441406 141.222656 C 117.5 142.898438 116.4375 144.679688 115.339844 146.457031 C 111.335938 152.84375 106.546875 160.121094 105.917969 162.214844 C 105.171875 164.675781 105.328125 166.507812 106.78125 167.972656 C 107.839844 169.019531 109.726562 169.226562 111.726562 169.019531 C 115.339844 168.703125 117.851562 167.5 119.109375 166.769531 C 121.070312 165.824219 123.308594 164.414062 125.46875 162.320312 C 129.394531 158.445312 131.789062 152.949219 131.554688 145.621094 C 131.433594 141.589844 130.453125 137.613281 129.238281 133.84375 C 129.589844 133.164062 129.945312 132.484375 130.296875 131.75 C 136.5 119.660156 141.289062 106.363281 141.289062 106.363281 C 141.289062 106.363281 141.761719 110.445312 143.210938 117.144531 C 143.957031 120.546875 145.449219 124.265625 146.785156 127.929688 C 140.976562 134.261719 137.324219 141.589844 136.066406 146.40625 C 133.75 155.304688 135.558594 159.335938 138.972656 160.277344 C 140.503906 160.695312 142.703125 159.753906 144.351562 158.8125 C 146.390625 157.921875 148.863281 156.402344 151.140625 154.152344 C 155.070312 150.28125 158.835938 144.890625 158.640625 137.613281 C 158.523438 134.261719 157.855469 130.964844 156.953125 127.824219 C 161.898438 125.101562 168.296875 123.53125 176.425781 124.839844 C 193.894531 127.5625 197.347656 142.113281 196.683594 148.1875 C 196.015625 154.257812 192.363281 157.609375 191.144531 158.65625 C 189.929688 159.648438 189.535156 160.015625 189.65625 160.75 C 189.8125 161.847656 190.359375 161.796875 191.421875 161.585938 C 192.875 161.273438 200.609375 156.613281 200.921875 145.414062 C 201.390625 131.015625 191.144531 115.3125 172.96875 115.46875 Z M 38.238281 176.03125 C 32.464844 184.460938 24.339844 187.652344 20.886719 184.929688 C 17.15625 182.050781 18.609375 169.644531 25.714844 160.695312 C 30.03125 155.25 35.644531 150.226562 39.335938 147.136719 C 40.160156 146.457031 41.417969 145.464844 42.910156 144.257812 C 43.144531 144.050781 43.300781 143.945312 43.300781 143.945312 C 43.578125 143.734375 43.890625 143.472656 44.203125 143.210938 C 46.835938 155.984375 44.320312 167.1875 38.238281 176.03125 Z M 80.4375 137.769531 C 78.4375 144.3125 74.195312 161.113281 71.644531 160.171875 C 69.445312 159.386719 68.113281 146.667969 71.214844 134.105469 C 72.785156 127.769531 76.121094 120.234375 78.082031 117.300781 C 81.265625 112.589844 84.71875 111.019531 85.582031 112.957031 C 86.601562 115.46875 81.695312 133.6875 80.4375 137.769531 Z M 115.261719 159.960938 C 114.398438 160.539062 113.613281 160.957031 113.257812 160.644531 C 112.984375 160.433594 113.613281 159.648438 113.613281 159.648438 C 113.613281 159.648438 117.96875 153.421875 119.695312 150.542969 C 120.679688 148.867188 121.855469 146.929688 123.113281 144.730469 L 123.113281 145.359375 C 123.113281 152.894531 117.695312 157.921875 115.261719 159.960938 Z M 142.113281 151.796875 C 141.484375 151.167969 141.5625 149.230469 143.683594 143.160156 C 144.507812 140.753906 146.390625 136.722656 149.648438 132.902344 C 150.042969 134.472656 150.277344 135.988281 150.238281 137.402344 C 150.199219 146.824219 145.175781 150.332031 142.113281 151.796875 Z M 142.113281 151.796875 "/>
</g>
</svg>
