<?xml version="1.0" encoding="UTF-8"?>
<svg xmlns="http://www.w3.org/2000/svg" xmlns:xlink="http://www.w3.org/1999/xlink" width="50pt" height="50pt" viewBox="0 0 50 50" version="1.1">
<g id="surface1">
<path style=" stroke:none;fill-rule:nonzero;fill:rgb(0%,0%,0%);fill-opacity:1;" d="M 0 5.808594 C 0 4.125 0.5625 2.734375 1.6875 1.640625 C 2.816406 0.546875 4.277344 0 6.082031 0 C 7.851562 0 9.28125 0.539062 10.375 1.617188 C 11.503906 2.726562 12.066406 4.175781 12.066406 5.960938 C 12.066406 7.574219 11.519531 8.921875 10.425781 10 C 9.296875 11.109375 7.820312 11.667969 5.984375 11.667969 L 5.9375 11.667969 C 4.167969 11.667969 2.734375 11.109375 1.640625 10 C 0.546875 8.890625 0 7.492188 0 5.808594 Z M 0.628906 50 L 0.628906 16.261719 L 11.339844 16.261719 L 11.339844 50 Z M 17.277344 50 L 27.992188 50 L 27.992188 31.160156 C 27.992188 29.984375 28.121094 29.074219 28.378906 28.433594 C 28.828125 27.289062 29.511719 26.320312 30.429688 25.53125 C 31.347656 24.738281 32.496094 24.34375 33.878906 24.34375 C 37.484375 24.34375 39.285156 26.886719 39.285156 31.96875 L 39.285156 50 L 50 50 L 50 30.65625 C 50 25.671875 48.875 21.894531 46.621094 19.316406 C 44.371094 16.742188 41.394531 15.453125 37.691406 15.453125 C 33.542969 15.453125 30.308594 17.324219 27.992188 21.0625 L 27.992188 21.160156 L 27.945312 21.160156 L 27.992188 21.0625 L 27.992188 16.261719 L 17.277344 16.261719 C 17.34375 17.339844 17.375 20.691406 17.375 26.3125 C 17.375 31.9375 17.34375 39.832031 17.277344 50 Z M 17.277344 50 "/>
</g>
</svg>
